<?xml version="1.0" encoding="iso-8859-1"?>
<!-- Uploaded to: SVG Repo, www.svgrepo.com, Generator: SVG Repo Mixer Tools -->
<svg fill="#F7FFF6" height="800px" width="800px" version="1.1" id="Layer_1" xmlns="http://www.w3.org/2000/svg" xmlns:xlink="http://www.w3.org/1999/xlink" 
	 viewBox="0 0 512 512" xml:space="preserve">
<g>
	<g>
		<path d="M361.739,0H16.696C7.475,0,0,7.475,0,16.696v478.609C0,504.525,7.475,512,16.696,512h345.043
			c9.22,0,16.696-7.475,16.696-16.696V16.696C378.435,7.475,370.96,0,361.739,0z M345.043,478.609H33.391V33.391h311.652V478.609z"
			/>
	</g>
</g>
<g>
	<g>
		<path d="M510.65,88.032l-33.391-77.913C474.627,3.98,468.591,0,461.913,0c-6.678,0-12.714,3.98-15.346,10.119l-33.391,77.913
			c-0.89,2.078-1.35,4.316-1.35,6.577v367.304c0,27.684,22.402,50.087,50.087,50.087C489.597,512,512,489.598,512,461.913V94.609
			C512,92.348,511.54,90.11,510.65,88.032z M478.609,461.913c0,9.227-7.466,16.696-16.696,16.696
			c-9.227,0-16.696-7.466-16.696-16.696v-16.696h33.391V461.913z M478.609,411.826h-33.391V133.565h33.391V411.826z
			 M478.609,100.174h-33.391v-2.138l16.696-38.957l16.696,38.957V100.174z"/>
	</g>
</g>
<g>
	<g>
		<path d="M228.174,66.783h-77.913c-9.22,0-16.696,7.475-16.696,16.696s7.475,16.696,16.696,16.696h77.913
			c9.22,0,16.696-7.475,16.696-16.696S237.394,66.783,228.174,66.783z"/>
	</g>
</g>
<g>
	<g>
		<path d="M294.957,133.565H83.478c-9.22,0-16.696,7.475-16.696,16.696s7.475,16.696,16.696,16.696h211.478
			c9.22,0,16.696-7.475,16.696-16.696S304.177,133.565,294.957,133.565z"/>
	</g>
</g>
<g>
	<g>
		<path d="M294.957,200.348h-77.913c-9.22,0-16.696,7.475-16.696,16.696c0,9.22,7.475,16.696,16.696,16.696h77.913
			c9.22,0,16.696-7.475,16.696-16.696C311.652,207.823,304.177,200.348,294.957,200.348z"/>
	</g>
</g>
<g>
	<g>
		<path d="M150.261,200.348H83.478c-9.22,0-16.696,7.475-16.696,16.696c0,9.22,7.475,16.696,16.696,16.696h66.783
			c9.22,0,16.696-7.475,16.696-16.696C166.957,207.823,159.481,200.348,150.261,200.348z"/>
	</g>
</g>
<g>
	<g>
		<path d="M294.957,267.13H83.478c-9.22,0-16.696,7.475-16.696,16.696c0,9.22,7.475,16.696,16.696,16.696h211.478
			c9.22,0,16.696-7.475,16.696-16.696C311.652,274.606,304.177,267.13,294.957,267.13z"/>
	</g>
</g>
<g>
	<g>
		<path d="M183.652,333.913H83.478c-9.22,0-16.696,7.475-16.696,16.696s7.475,16.696,16.696,16.696h100.174
			c9.22,0,16.696-7.475,16.696-16.696S192.873,333.913,183.652,333.913z"/>
	</g>
</g>
<g>
	<g>
		<path d="M294.957,400.696H83.478c-9.22,0-16.696,7.475-16.696,16.696s7.475,16.696,16.696,16.696h211.478
			c9.22,0,16.696-7.475,16.696-16.696S304.177,400.696,294.957,400.696z"/>
	</g>
</g>
<g>
	<g>
		<path d="M294.957,333.913h-44.522c-9.22,0-16.696,7.475-16.696,16.696s7.475,16.696,16.696,16.696h44.522
			c9.22,0,16.696-7.475,16.696-16.696S304.177,333.913,294.957,333.913z"/>
	</g>
</g>
</svg>